<?xml version="1.0" standalone="no"?>
<!DOCTYPE svg PUBLIC "-//W3C//DTD SVG 1.1//EN" "http://www.w3.org/Graphics/SVG/1.1/DTD/svg11.dtd" >
<svg xmlns="http://www.w3.org/2000/svg">
<metadata>Generated by IcoMoon</metadata>
<defs>
<font id="icomoon" horiz-adv-x="1024">
<font-face units-per-em="1024" ascent="960" descent="-64" />
<missing-glyph horiz-adv-x="1024" />
<glyph unicode="&#x20;" horiz-adv-x="512" d="" />
<glyph unicode="&#xe900;" d="M921.448 448c0-226.216-183.384-409.6-409.6-409.6s-409.6 183.384-409.6 409.6c0 226.216 183.384 409.6 409.6 409.6v0c226.216 0 409.6-183.384 409.6-409.6v0z" />
<glyph unicode="&#xe901;" d="M512 857.448c226.216 0 409.6-183.384 409.6-409.6s-183.384-409.6-409.6-409.6c-226.216 0-409.6 183.384-409.6 409.6v0c0 226.216 183.384 409.6 409.6 409.6v0zM512 956.056c-280.662-0.018-508.176-227.543-508.176-508.207 0-71.384 14.717-139.33 41.283-200.969l-1.265 3.299c79.151-184.031 258.898-310.552 468.196-310.552s389.044 126.52 466.93 307.252l1.266 3.3c25.341 58.382 40.082 126.38 40.082 197.822 0 280.675-227.532 508.207-508.207 508.207-0.038 0-0.076 0-0.114 0h0.006z" />
<glyph unicode="&#xe902;" d="M310.993 619.88l46.042-312.206h-82.982l-4.324 56.13h-29.051l-4.93-56.13h-84.044l41.415 312.282zM267.605 419.025q-6.296 53.096-12.44 131.224-12.44-89.733-15.55-131.224z" />
<glyph unicode="&#xe903;" d="M380.7 619.88h137.519v-62.502h-56.282v-59.24h50.138v-59.392h-50.138v-131.148h-81.237v312.282z" />
<glyph unicode="&#xe904;" d="M547.802 619.88h137.519v-62.502h-56.358v-59.24h50.214v-59.392h-50.214v-131.148h-81.161v312.282z" />
<glyph unicode="&#xe905;" d="M714.904 619.88h137.519v-62.502h-56.358v-59.24h50.138v-59.392h-50.138v-131.148h-81.161v312.282z" />
<glyph unicode="&#xe906;" d="M922.207 447.848c0-226.216-183.384-409.6-409.6-409.6s-409.6 183.384-409.6 409.6c0 226.216 183.384 409.6 409.6 409.6v0c226.216 0 409.6-183.384 409.6-409.6v0z" />
<glyph unicode="&#xe907;" d="M512.379 956.207c-0.279 0.001-0.609 0.001-0.939 0.001-140.121 0-266.942-56.946-358.582-148.957l-0.017-0.017c-92.076-91.733-149.049-218.645-149.049-358.863 0-0.184 0-0.367 0-0.551v0.028c0-0.138 0-0.303 0-0.467 0-209.096 126.429-388.664 307.012-466.427l3.298-1.264c58.405-25.336 126.429-40.074 197.895-40.074 140.394 0 267.504 56.878 359.543 148.848l-0.003-0.003c91.866 92.042 148.675 219.103 148.675 359.432 0 71.39-14.703 139.347-41.245 201.006l1.266-3.306c-26.791 62.854-63.478 116.512-108.688 161.632l-0.008 0.008c-45.221 45.182-98.846 81.962-158.326 107.793l-3.314 1.282c-57.663 25.224-124.86 39.902-195.485 39.902-0.715 0-1.429-0.002-2.143-0.005h0.11zM512.379 857.6c226.216 0 409.6-183.384 409.6-409.6s-183.384-409.6-409.6-409.6c-226.216 0-409.6 183.384-409.6 409.6v0c0 226.216 183.384 409.6 409.6 409.6v0z" />
<glyph unicode="&#xe908;" d="M331.169 534.699q-4.551 37.926-8.951 95.422c-5.916-43.691-9.937-75.473-11.454-95.422zM362.572 680.41l33.678-227.025h-60.681l-3.337 40.657h-20.708l-3.717-40.657h-60.681l29.961 227.025z" />
<glyph unicode="&#xe909;" d="M420.674 680.41h99.821v-45.132h-41.036v-43.236h36.636v-42.932h-36.636v-95.422h-58.785v226.721z" />
<glyph unicode="&#xe90a;" d="M549.016 680.41h100.2v-45.132h-41.036v-43.236h36.636v-42.932h-36.636v-95.422h-59.164v226.721z" />
<glyph unicode="&#xe90b;" d="M677.736 680.41h99.821v-45.132h-40.657v-43.236h36.257v-42.932h-36.257v-95.422h-59.164v226.721z" />
<glyph unicode="&#xe90c;" d="M209.806 420.466h605.146v-24.045h-605.146v24.045z" />
<glyph unicode="&#xe90d;" d="M438.044 308.053h55.448v55.448h37.774v-55.448h55.827v-37.698h-55.827v-55.144h-37.774v55.144h-55.448v37.698z" />
<glyph unicode="&#xe90e;" d="M921.448 447.924c0-226.216-183.384-409.6-409.6-409.6s-409.6 183.384-409.6 409.6c0 226.216 183.384 409.6 409.6 409.6v0c226.216 0 409.6-183.384 409.6-409.6v0z" />
<glyph unicode="&#xe90f;" d="M512 857.448c226.216 0 409.6-183.384 409.6-409.6s-183.384-409.6-409.6-409.6c-226.216 0-409.6 183.384-409.6 409.6v0c0 226.216 183.384 409.6 409.6 409.6v0zM512 956.056c-280.675 0-508.207-227.532-508.207-508.207v0c0 0 0 0 0 0 0-280.675 227.532-508.207 508.207-508.207 209.263 0 388.985 126.479 466.892 307.163l1.266 3.299c25.362 58.404 40.116 126.43 40.116 197.902 0 209.259-126.474 388.978-307.153 466.888l-3.299 1.266c-58.051 25.319-125.686 40.051-196.762 40.051-0.373 0-0.745 0-1.117-0.001h0.058z" />
<glyph unicode="&#xe910;" d="M473.998 608.503l48.393-325.404h-86.395l-4.627 58.482h-30.341l-5.158-58.482h-87.305l43.16 325.404zM429.17 399.303q-6.372 55.22-12.895 136.533-12.971-93.449-16.232-136.533z" />
<glyph unicode="&#xe911;" d="M526.412 608.503h59.999c3.756 0.111 8.175 0.175 12.61 0.175 24.168 0 47.895-1.884 71.044-5.512l-2.568 0.332c14.505-3.239 26.614-11.759 34.462-23.391l0.126-0.198c8.875-12.591 13.35-32.844 13.35-60.681q0-37.926-9.481-51.048c-6.296-8.723-18.735-13.957-37.167-15.701q25.107-6.296 33.754-16.687c4.649-5.213 8.242-11.477 10.374-18.382l0.094-0.353c1.481-11.162 2.327-24.068 2.327-37.172 0-3.866-0.074-7.716-0.219-11.546l0.017 0.552v-85.788h-77.976v108.013c0 17.446-1.365 28.293-4.096 32.389s-10.012 6.22-21.694 6.22v-146.622h-84.954zM611.063 552.827v-72.363c0.967-0.092 2.091-0.145 3.227-0.145 6.145 0 11.93 1.542 16.99 4.259l-0.192-0.094c3.868 2.503 5.765 10.999 5.765 25.335v17.825c0.157 1.091 0.247 2.35 0.247 3.63 0 6.305-2.179 12.102-5.826 16.677l0.042-0.054c-4.797 3.15-10.677 5.025-16.994 5.025-1.148 0-2.281-0.062-3.396-0.182l0.138 0.012z" />
<glyph unicode="&#xe912;" d="M0 448c0 0.042 0 0.091 0 0.14 0 282.77 229.23 512 512 512 212.134 0 394.136-129.011 471.827-312.854l1.261-3.361c24.642-57.893 38.966-125.236 38.966-195.925 0-282.799-229.254-512.054-512.054-512.054-212.111 0-394.099 128.969-471.826 312.768l-1.262 3.36c-24.607 57.598-38.913 124.614-38.913 194.971 0 0.335 0 0.671 0.001 1.006v-0.052z" />
<glyph unicode="&#xe913;" d="M434.517 718.677c-9.895 9.957-23.599 16.12-38.741 16.12s-28.846-6.163-38.739-16.117l-0.003-0.003c-9.637-10.040-15.572-23.697-15.572-38.741s5.934-28.702 15.59-38.76l-0.018 0.019 193.536-193.195-193.536-193.536c-9.637-10.040-15.572-23.697-15.572-38.741s5.934-28.702 15.59-38.76l-0.018 0.019c9.97-9.794 23.649-15.84 38.741-15.84s28.772 6.046 38.749 15.848l232.44 232.44c9.694 9.951 15.673 23.563 15.673 38.571s-5.979 28.62-15.685 38.583l0.012-0.012z" />
<glyph unicode="&#xe914;" d="M512-64c-46.978 0.131-92.422 6.455-135.636 18.197l3.653-0.846c-110.609 28.838-203.691 91.629-269.964 176.394l-0.827 1.099c-33.153 41.916-60.491 90.422-79.629 142.873l-1.153 3.616c-18.552 50.82-29.282 109.49-29.282 170.666 0 282.77 229.23 512 512 512s512-229.23 512-512c0-282.476-228.754-511.523-511.118-511.999h-0.045z" />
<glyph unicode="&#xe915;" d="M726.756 511.147c-6.001-6.83-12.42-12.979-19.33-18.542l-0.297-0.231c-40.107-31.004-81.067-62.578-120.604-95.573-19.871-20.766-46.364-35.049-76.078-39.45l-0.722-0.088c-30.472 4.351-57.002 18.665-76.745 39.48l-0.055 0.058c-39.253 32.996-80.213 64.569-120.604 95.858-7.035 5.859-13.357 12-19.182 18.589l-0.16 0.184v-217.316c0.153-4.807 4.010-8.665 8.803-8.817h415.872c4.807 0.153 8.665 4.010 8.817 8.803v217.045zM717.653 610.702h-416.427c-4.807-0.153-8.665-4.010-8.817-8.803v-0.014c0.546-32.81 16.526-61.776 40.976-80.022l0.269-0.192 113.778-89.6c15.076-12.516 42.382-38.4 62.009-38.4v0c19.911 0 46.933 25.884 61.724 38.4l113.778 89.6c21.516 16.489 36.607 40.424 41.433 67.895l0.095 0.656c0.284 8.249 1.991 20.48-8.818 20.48zM763.164 294.116c-0.16-24.913-20.313-45.066-45.211-45.227h-416.726c-24.913 0.16-45.066 20.313-45.227 45.211v307.784c0.16 24.913 20.313 45.066 45.211 45.227h416.442c24.913-0.16 45.066-20.313 45.227-45.211v-307.784z" />
<glyph unicode="&#xe916;" glyph-name="letter_white" horiz-adv-x="1317" d="M1217.097 610.377c-15.593-17.371-32.083-33.165-49.689-47.652l-0.78-0.623c-103.863-79.726-209.189-160.914-310.126-245.76-51.274-53.533-119.678-90.291-196.381-101.449l-1.836-0.219c-78.86 11.033-147.59 47.862-198.824 101.537l-0.125 0.132c-100.206 84.846-205.531 166.034-309.394 246.491-18.386 15.109-34.875 30.903-50.1 47.857l-0.369 0.418v-558.811c0.407-12.608 10.725-22.674 23.394-22.674 0.004 0 0.008 0 0.012 0h1070.079c0.003 0 0.007 0 0.011 0 12.669 0 22.988 10.066 23.393 22.637l0.001 0.037v558.080zM1192.96 866.377h-1070.080c-0.003 0-0.007 0-0.011 0-12.669 0-22.988-10.066-23.393-22.637l-0.001-0.037c1.707-84.454 43.029-158.913 106.086-205.764l0.703-0.499 292.571-230.4c37.303-32.183 108.251-98.743 159.451-98.743v0c50.469 0 120.686 66.56 158.72 98.743l292.571 230.4c55.327 42.401 94.133 103.949 106.543 174.588l0.245 1.686c0.731 21.211 5.12 52.663-23.406 52.663zM1309.989 52.297c-0.412-64.063-52.234-115.885-116.258-116.297h-1070.85c-64.063 0.412-115.885 52.234-116.297 116.258v791.445c0.412 64.063 52.234 115.885 116.258 116.297h1070.119c64.063-0.412 115.885-52.234 116.297-116.258v-791.445z" />
<glyph unicode="&#xe917;" horiz-adv-x="1590" d="M94.741 50.305c0.571-0.017 1.242-0.026 1.916-0.026 8.729 0 17.084 1.597 24.79 4.515l-0.482-0.16c7.129 2.83 13.186 6.989 18.127 12.215l0.022 0.024c4.909 5.282 8.772 11.612 11.209 18.609l0.113 0.372c2.528 7.264 4.408 15.735 5.289 24.501l0.039 0.475h-84.334c-0.282-0.034-0.609-0.053-0.941-0.053-1.659 0-3.205 0.485-4.503 1.322l0.033-0.020c-0.924 1.114-1.485 2.557-1.485 4.132 0 0.334 0.025 0.662 0.074 0.982l-0.004-0.036v30.054c-0.027 0.241-0.043 0.52-0.043 0.803 0 1.672 0.547 3.215 1.473 4.462l-0.014-0.020c1.222 0.923 2.767 1.479 4.442 1.479 0.342 0 0.678-0.023 1.008-0.068l-0.038 0.004h83.252c-0.982 15.129-7.444 28.584-17.4 38.546v0c-9.735 8.378-22.498 13.48-36.453 13.48-1.029 0-2.051-0.028-3.067-0.083l0.141 0.006c-0.28 0.002-0.611 0.004-0.942 0.004-8.503 0-16.808-0.85-24.834-2.469l0.8 0.135c-9.492-1.893-17.669-4.221-25.57-7.121l1.177 0.378c-1.326-0.644-2.884-1.020-4.531-1.020-0.964 0-1.899 0.129-2.787 0.371l0.074-0.017c-1.415 0.666-2.664 2.664-3.913 5.911l-9.407 24.31c-1.261 2.289-2.003 5.017-2.003 7.918 0 0.143 0.002 0.286 0.005 0.429v-0.021c0 1.415 1.998 2.831 4.829 4.246 10.363 5.129 22.387 9.072 35.023 11.214l0.775 0.109c11.106 2.051 23.892 3.232 36.951 3.247h0.013q53.115 0 82.003-30.803t28.972-89.080c0.007-0.614 0.011-1.339 0.011-2.065 0-18.428-2.526-36.266-7.252-53.187l0.331 1.388c-4.258-15.957-11.341-29.873-20.753-41.877l0.19 0.251c-9.309-11.455-21.118-20.515-34.626-26.411l-0.59-0.23c-14.077-5.97-30.447-9.439-47.628-9.439-0.992 0-1.982 0.012-2.969 0.035l0.147-0.003c-15.297 0.075-30.194 1.586-44.623 4.407l1.498-0.244c-15.494 2.911-29.296 8.301-41.68 15.796l0.554-0.311c-1.802 0.83-3.191 2.3-3.895 4.112l-0.017 0.051c-0.051 0.387-0.080 0.835-0.080 1.289 0 2.262 0.716 4.356 1.933 6.069l-0.022-0.032 12.155 24.976c0.792 2.068 2.147 3.772 3.878 4.972l0.035 0.023c1.499 0.916 3.83 0.583 7.243-0.833 7.909-2.747 16.65-5.578 25.475-8.325 8.694-2.547 18.682-4.013 29.013-4.013 0.659 0 1.316 0.006 1.972 0.018l-0.099-0.001z" />
<glyph unicode="&#xe918;" horiz-adv-x="1590" d="M299.208 13.258c0.064-0.387 0.1-0.833 0.1-1.288 0-1.794-0.568-3.456-1.533-4.815l0.017 0.026c-1.568-0.79-3.417-1.253-5.374-1.253-0.512 0-1.016 0.032-1.512 0.093l0.059-0.006h-38.046c-0.253-0.022-0.548-0.034-0.845-0.034-2.026 0-3.92 0.57-5.528 1.559l0.046-0.026c-1.261 1.277-2.040 3.033-2.040 4.971 0 0.272 0.015 0.541 0.045 0.805l-0.003-0.032v172.498c0 0.049 0 0.108 0 0.166 0 8.515 1.247 16.738 3.569 24.498l-0.155-0.604c2.427 7.929 6.249 14.792 11.224 20.645l-0.068-0.082c5.477 6.216 12.269 11.138 19.954 14.352l0.36 0.134c8.572 3.446 18.511 5.445 28.916 5.445 0.81 0 1.617-0.012 2.421-0.036l-0.118 0.003h103.482c3.080 0 5.078-0.583 5.911-1.748 0.82-1.611 1.3-3.514 1.3-5.529 0-0.398-0.019-0.792-0.055-1.181l0.004 0.050v-29.638c0.031-0.29 0.048-0.626 0.048-0.966 0-1.894-0.545-3.66-1.487-5.151l0.023 0.040c-1.363-1.013-3.078-1.621-4.936-1.621-0.285 0-0.566 0.014-0.843 0.042l0.035-0.003h-91.577c-0.901 0.127-1.942 0.2-3 0.2-6.074 0-11.59-2.392-15.657-6.285l0.008 0.008c-2.925-4.038-4.679-9.092-4.679-14.555 0-0.327 0.006-0.653 0.019-0.977l-0.001 0.047z" />
<glyph unicode="&#xe919;" horiz-adv-x="1590" d="M608.822 169.106l-31.969-52.282-60.691-95.49c-1.927-2.971-3.818-5.523-5.848-7.954l0.104 0.128c-1.547-1.838-3.33-3.409-5.318-4.689l-0.093-0.056c-1.911-1.16-4.168-1.958-6.582-2.24l-0.078-0.007c-2.526-0.32-5.449-0.503-8.414-0.503-0.232 0-0.464 0.001-0.696 0.003h-14.701c-0.907-0.135-1.953-0.212-3.017-0.212-6.105 0-11.618 2.538-15.541 6.616l-0.007 0.007c-3.002 4.516-4.79 10.065-4.79 16.031 0 0.569 0.016 1.135 0.048 1.696l-0.004-0.078v213.958c0 4.412 2.581 6.66 7.576 6.66h38.462c0.368 0.052 0.793 0.082 1.225 0.082 1.867 0 3.604-0.559 5.053-1.519l-0.034 0.021c0.807-1.26 1.287-2.797 1.287-4.447 0-0.281-0.014-0.559-0.041-0.833l0.003 0.035v-156.847h2.081l30.887 48.619 62.106 99.070q3.247 4.912 5.744 8.325c1.509 1.908 3.3 3.513 5.324 4.778l0.087 0.051c1.844 1.11 4 1.926 6.302 2.316l0.109 0.015c2.472 0.321 5.331 0.504 8.232 0.504 0.267 0 0.533-0.002 0.799-0.005h14.612c0.786 0.088 1.696 0.138 2.619 0.138 5.968 0 11.447-2.093 15.743-5.585l-0.046 0.036c3.26-4.506 5.214-10.143 5.214-16.237 0-0.967-0.049-1.922-0.145-2.863l0.010 0.118v-213.874c0-4.412-2.581-6.577-7.576-6.577h-38.379c-3.33 0-5.495 0-6.41 1.415-0.964 1.168-1.549 2.681-1.549 4.33 0 0.293 0.018 0.582 0.054 0.865l-0.003-0.034v156.514z" />
<glyph unicode="&#xe91a;" horiz-adv-x="1590" d="M734.2 6.015c-0.5-8.325-1.082-16.65-1.748-24.976l-2.248-24.976c0.016-0.173 0.024-0.374 0.024-0.577 0-3.77-3.056-6.827-6.827-6.827-0.361 0-0.716 0.028-1.062 0.082l0.038-0.005h-29.138c-3.996 0-6.327 2.331-6.827 6.993l-3.746 77.424c-0.019 0.344-0.030 0.746-0.030 1.15 0 3.722 0.936 7.225 2.585 10.288l-0.057-0.116c2.515 3.36 6.325 5.631 10.675 6.072l0.064 0.005 12.987 1.082c4.506 4.355 8.421 9.277 11.643 14.662l0.179 0.323c2.856 4.775 5.343 10.288 7.174 16.093l0.152 0.557c1.632 4.905 3.135 10.93 4.214 17.102l0.115 0.798c1.082 6.077 1.998 12.072 2.747 18.149l12.488 96.489c0.833 5.162 1.582 9.824 2.414 13.986 0.727 4.039 2.243 7.628 4.389 10.749l-0.060-0.093c2.111 2.934 4.923 5.239 8.197 6.693l0.128 0.051c3.757 1.595 8.126 2.522 12.712 2.522 0.448 0 0.894-0.009 1.338-0.026l-0.064 0.002h118.135c0.905 0.12 1.952 0.188 3.015 0.188 6.090 0 11.655-2.247 15.912-5.957l-0.029 0.025c3.066-4.379 4.899-9.818 4.899-15.684 0-0.692-0.025-1.377-0.076-2.056l0.005 0.091v-174.829l15.152-1.082c0.22 0.012 0.476 0.019 0.735 0.019 3.997 0 7.605-1.667 10.166-4.343l0.005-0.005c1.517-2.134 2.425-4.792 2.425-7.663 0-0.556-0.034-1.104-0.1-1.643l0.006 0.064-4.662-81.504c-0.090-1.949-0.666-3.745-1.61-5.294l0.028 0.049c-1.062-1.105-2.553-1.791-4.204-1.791-0.25 0-0.496 0.016-0.737 0.046l0.029-0.003h-30.887c-4.496 0-6.827 2.414-6.827 7.326l-1.748 49.951zM863.906 203.988h-66.602c-2.914-24.976-5.411-45.872-7.576-63.105s-4.246-31.636-6.327-43.374c-1.794-11.238-3.967-20.847-6.678-30.228l0.434 1.756c-1.952-6.78-4.418-12.663-7.469-18.177l0.226 0.445h93.825z" />
<glyph unicode="&#xe91b;" horiz-adv-x="1590" d="M1116.743 56.882h-82.253l-14.070-44.29c-0.471-2.049-1.564-3.792-3.067-5.067l-0.013-0.011c-1.661-0.976-3.658-1.553-5.79-1.553-0.394 0-0.784 0.020-1.168 0.058l0.048-0.004h-42.042c-2.664 0-4.246 0.666-4.829 2.081-0.265 0.731-0.419 1.576-0.419 2.456s0.153 1.724 0.435 2.508l-0.016-0.052 74.927 218.537c1.018 3.638 2.439 6.819 4.254 9.731l-0.091-0.157c1.382 2.3 3.165 4.215 5.27 5.705l0.058 0.039c2.052 1.333 4.45 2.344 7.021 2.889l0.139 0.025c2.761 0.583 5.933 0.917 9.184 0.917 0.108 0 0.216 0 0.324-0.001h21.629c0.215 0.002 0.469 0.003 0.724 0.003 3.41 0 6.778-0.182 10.094-0.538l-0.412 0.036c2.816-0.341 5.356-1.288 7.564-2.707l-0.071 0.043c2.304-1.52 4.18-3.503 5.533-5.828l0.045-0.083c1.719-2.883 3.242-6.215 4.394-9.716l0.102-0.358 74.927-218.537c0.238-0.683 0.376-1.47 0.376-2.289s-0.138-1.607-0.391-2.34l0.015 0.050c-0.5-1.665-1.998-2.414-4.662-2.414h-42.708c-0.174-0.005-0.378-0.008-0.584-0.008-2.164 0-4.255 0.307-6.235 0.879l0.158-0.039c-1.969 0.824-3.399 2.585-3.742 4.71l-0.005 0.035zM1047.394 99.757h56.362l-13.653 44.373-13.237 49.951h-2.165l-13.653-49.951z" />
<glyph unicode="&#xe91c;" horiz-adv-x="1590" d="M1227.801 929.696v0c-4.808 1.566-10.34 2.469-16.083 2.469-17.076 0-32.288-7.983-42.107-20.422l-0.086-0.113c-6.256 20.949-25.351 35.958-47.951 35.958-22.203 0-41.023-14.486-47.523-34.523l-0.099-0.353c-6.41 18.597-23.76 31.719-44.175 31.719-0.070 0-0.139 0-0.209 0h0.011c-0.324 0.008-0.706 0.013-1.088 0.013-25.213 0-45.701-20.232-46.115-45.346l-0.001-0.039c0.053-25.846 21.017-46.778 46.871-46.778 20.858 0 38.534 13.625 44.614 32.46l0.093 0.332c6.623-20.35 25.423-34.799 47.598-34.799 0.008 0 0.016 0 0.024 0h-0.001c15.383 0.071 29.114 7.085 38.23 18.067l0.066 0.082c3.627-14.556 13.090-26.416 25.699-33.166l0.275-0.135c1.166-0.583 2.414-0.916 3.58-1.415-2.333 0.429-5.018 0.675-7.761 0.675-12.453 0-23.724-5.064-31.865-13.244l-0.002-0.002c-6.415 15.228-21.216 25.723-38.469 25.723-16.451 0-30.673-9.543-37.432-23.396l-0.109-0.246c-6.67 12.377-19.539 20.647-34.339 20.647-0.074 0-0.148 0-0.222-0.001h0.011c-0.109 0.001-0.238 0.002-0.367 0.002-20.142 0-36.66-15.516-38.253-35.248l-0.009-0.136c-6.37 11.020-18.099 18.316-31.531 18.316-0.066 0-0.132 0-0.199-0.001h0.010c-19.031-0.536-34.254-16.092-34.254-35.202 0-19.449 15.767-35.216 35.216-35.216 18.389 0 33.487 14.095 35.077 32.071l0.010 0.134c6.788-12.268 19.652-20.437 34.425-20.437s27.637 8.169 34.323 20.236l0.102 0.201c6.857-14.13 21.095-23.699 37.568-23.699 11.379 0 21.692 4.566 29.206 11.965l-0.005-0.005c3.703-9.895 10.645-17.862 19.511-22.782l0.22-0.112c-0.56 0.031-1.216 0.048-1.876 0.048-9.532 0-18.21-3.657-24.706-9.645l0.025 0.023c-5.462 11.368-16.886 19.076-30.11 19.076-12.434 0-23.276-6.815-28.996-16.913l-0.086-0.165c-5.612 8.953-15.427 14.819-26.611 14.819-0.010 0-0.021 0-0.031 0h0.002c-0.118 0.002-0.256 0.003-0.395 0.003-15.101 0-27.663-10.866-30.296-25.205l-0.029-0.189c-5.407 7.353-14.025 12.072-23.745 12.072-0.052 0-0.105 0-0.157 0h0.008c-0.149 0.003-0.326 0.004-0.502 0.004-15.626 0-28.32-12.551-28.552-28.122v-0.022c-0.002-0.129-0.003-0.282-0.003-0.434 0-3.242 0.55-6.356 1.562-9.253l-0.060 0.197c-4.593 8.628-13.53 14.403-23.815 14.403-0.028 0-0.055 0-0.083 0h0.004c-14.111-0.417-25.392-11.957-25.392-26.13 0-14.437 11.704-26.141 26.141-26.141 14.404 0 26.088 11.65 26.141 26.042v0.005c0 0.030 0 0.066 0 0.102 0 3.384-0.673 6.611-1.893 9.554l0.061-0.166c4.972-9.367 14.665-15.638 25.822-15.638 13.875 0 25.485 9.698 28.421 22.686l0.037 0.195c5.787-8.276 15.272-13.622 26.006-13.622 11.225 0 21.084 5.846 26.7 14.659l0.076 0.128c5.865-10.024 16.578-16.651 28.84-16.651 0.076 0 0.151 0 0.227 0.001h-0.012c8.435 0.085 16.12 3.223 22.020 8.36l-0.041-0.035c2.983-7.75 8.444-13.991 15.395-17.893l0.173-0.089c1.742-0.93 3.783-1.778 5.91-2.431l0.251-0.066c93.078-28.058 159.704-113.019 159.704-213.541s-66.626-185.483-158.128-213.132l-1.576-0.409 81.087-242.097c197.89 62.273 341.333 242.763 341.333 455.638s-143.11 393.283-341.333 455.722z" />
<glyph unicode="&#xe91d;" horiz-adv-x="1590" d="M655.11 403.876c-3.1 1.725-6.799 2.741-10.736 2.741-8.192 0-15.357-4.399-19.261-10.963l-0.057-0.103c-1.781-3.025-2.833-6.665-2.833-10.55 0-8.007 4.468-14.97 11.046-18.533l0.111-0.055c3.088-1.691 6.765-2.685 10.674-2.685 8.197 0 15.372 4.371 19.323 10.909l0.057 0.101c1.764 3.029 2.806 6.667 2.806 10.548 0 8.024-4.452 15.009-11.021 18.618l-0.11 0.055z" />
<glyph unicode="&#xe91e;" horiz-adv-x="1590" d="M747.187 419.528c-2.46 1.346-5.389 2.137-8.502 2.137-6.61 0-12.387-3.566-15.512-8.879l-0.046-0.084c-1.437-2.411-2.287-5.317-2.287-8.422 0-6.479 3.7-12.093 9.102-14.845l0.094-0.044c2.46-1.346 5.389-2.137 8.502-2.137 6.61 0 12.387 3.566 15.512 8.879l0.046 0.084c1.437 2.411 2.287 5.317 2.287 8.422 0 6.479-3.7 12.093-9.102 14.845l-0.094 0.044z" />
<glyph unicode="&#xe91f;" horiz-adv-x="1590" d="M821.281 432.182c-1.978 1.080-4.334 1.715-6.837 1.715-5.286 0-9.911-2.831-12.441-7.060l-0.037-0.066c-1.083-1.905-1.721-4.185-1.721-6.614 0-5.203 2.928-9.721 7.225-11.999l0.074-0.036c1.988-1.093 4.356-1.735 6.875-1.735 5.26 0 9.866 2.804 12.403 6.999l0.036 0.065c1.117 1.929 1.776 4.244 1.776 6.712 0 5.191-2.915 9.702-7.198 11.984l-0.073 0.036z" />
<glyph unicode="&#xe920;" horiz-adv-x="1590" d="M939.249 838.286c0.175-0.003 0.381-0.004 0.588-0.004 23.492 0 42.58 18.857 42.953 42.261v0.035c-1.048 23.259-20.16 41.719-43.582 41.719s-42.534-18.46-43.579-41.625l-0.003-0.094c0.419-23.448 19.526-42.296 43.035-42.296 0.207 0 0.414 0.001 0.62 0.004h-0.031z" />
<glyph unicode="&#xe921;" horiz-adv-x="1590" d="M903.201 730.557c17.817 0.328 32.135 14.848 32.135 32.713 0 18.070-14.648 32.718-32.718 32.718s-32.718-14.648-32.718-32.718c0-0.027 0-0.055 0-0.082v0.004c0.374-18.103 15.137-32.635 33.294-32.635 0.002 0 0.005 0 0.007 0v0z" />
<glyph unicode="&#xe922;" horiz-adv-x="1590" d="M854.998 805.068c0.175-0.003 0.381-0.004 0.587-0.004 21.775 0 39.464 17.488 39.79 39.185v0.031c0 22.3-18.078 40.377-40.377 40.377s-40.377-18.078-40.377-40.377v0c0.326-21.728 18.016-39.216 39.79-39.216 0.206 0 0.412 0.002 0.618 0.005h-0.031z" />
<glyph unicode="&#xe923;" horiz-adv-x="1590" d="M876.061 722.149c0.010 0.298 0.016 0.648 0.016 0.999 0 17.15-13.903 31.053-31.053 31.053s-31.053-13.903-31.053-31.053c0-17.144 13.894-31.044 31.036-31.053h0.001c0.15-0.003 0.326-0.004 0.504-0.004 16.7 0 30.271 13.398 30.549 30.032v0.026z" />
<glyph unicode="&#xe924;" horiz-adv-x="1590" d="M780.654 755.533c19.447 0.647 34.966 16.568 34.966 36.113 0 19.955-16.177 36.131-36.131 36.131s-36.131-16.177-36.131-36.131c0-0.023 0-0.045 0-0.068v0.004c0.325-19.981 16.598-36.054 36.626-36.054 0.236 0 0.471 0.002 0.706 0.007l-0.035-0.001z" />
<glyph unicode="&#xe925;" horiz-adv-x="1590" d="M896.874 690.347c-12.888-0.506-23.144-11.077-23.144-24.042 0-13.288 10.772-24.060 24.060-24.060 13.282 0 24.050 10.762 24.060 24.041v0.001c-0.184 13.331-11.033 24.067-24.391 24.067-0.206 0-0.411-0.003-0.615-0.008l0.030 0.001z" />
<glyph unicode="&#xe926;" horiz-adv-x="1590" d="M796.805 697.756c-14.811-0.463-26.641-12.58-26.641-27.461 0-15.173 12.3-27.473 27.473-27.473 15.169 0 27.466 12.293 27.473 27.46v0.001c-0.233 15.224-12.629 27.476-27.886 27.476-0.147 0-0.295-0.001-0.442-0.003h0.022z" />
<glyph unicode="&#xe927;" horiz-adv-x="1590" d="M718.965 692.261c18.103 0.374 32.635 15.137 32.635 33.294 0 18.392-14.909 33.301-33.301 33.301-18.389 0-33.297-14.905-33.301-33.294v0c0-0.002 0-0.004 0-0.007 0-18.392 14.909-33.301 33.301-33.301 0.234 0 0.468 0.002 0.701 0.007l-0.035-0.001z" />
<glyph unicode="&#xe928;" horiz-adv-x="1590" d="M859.577 648.055c-11.821-0.46-21.229-10.154-21.229-22.046 0-12.184 9.877-22.062 22.062-22.062s22.062 9.877 22.062 22.062c0 0.024 0 0.047 0 0.071v-0.004c-0.186 12.179-10.103 21.981-22.309 21.981-0.118 0-0.236-0.001-0.353-0.003h0.018z" />
<glyph unicode="&#xe929;" horiz-adv-x="1590" d="M760.757 634.734c-13.504-0.372-24.31-11.407-24.31-24.967 0-13.794 11.182-24.976 24.976-24.976 13.791 0 24.971 11.177 24.976 24.966v0c0 0.003 0 0.006 0 0.009 0 13.794-11.182 24.976-24.976 24.976-0.234 0-0.468-0.003-0.7-0.010l0.034 0.001z" />
<glyph unicode="&#xe92a;" horiz-adv-x="1590" d="M672.76 677.692c-16.108-0.509-28.972-13.689-28.972-29.873 0-16.506 13.381-29.887 29.887-29.887 16.501 0 29.879 13.373 29.887 29.873v0.001c-0.232 16.558-13.71 29.892-30.301 29.892-0.177 0-0.353-0.002-0.529-0.005h0.026z" />
<glyph unicode="&#xe92b;" horiz-adv-x="1590" d="M831.605 599.186c-10.781-0.325-19.398-9.142-19.398-19.972 0-11.035 8.946-19.98 19.98-19.98s19.98 8.946 19.98 19.98c0 0.026 0 0.053 0 0.079v-0.004c-0.186 11.030-9.171 19.9-20.228 19.9-0.118 0-0.236-0.001-0.353-0.003h0.018z" />
<glyph unicode="&#xe92c;" horiz-adv-x="1590" d="M738.612 565.718c-12.031-0.372-21.643-10.214-21.643-22.302 0-12.322 9.989-22.312 22.312-22.312s22.312 9.989 22.312 22.312c0 0.114-0.001 0.227-0.003 0.34v-0.017c-0.186 12.363-10.252 22.314-22.642 22.314-0.118 0-0.236-0.001-0.353-0.003h0.018z" />
<glyph unicode="&#xe92d;" horiz-adv-x="1590" d="M814.455 545.655c-9.814-0.094-17.733-8.072-17.733-17.898 0-9.885 8.014-17.899 17.899-17.899s17.899 8.013 17.899 17.898v0c-0.14 9.916-8.211 17.901-18.147 17.901-0.088 0-0.177-0.001-0.265-0.002h0.013z" />
<glyph unicode="&#xe92e;" horiz-adv-x="1590" d="M644.371 589.612c-14.443-0.463-25.975-12.282-25.975-26.794 0-14.805 12.002-26.807 26.807-26.807 14.801 0 26.8 11.995 26.807 26.794v0.001c-0.185 14.847-12.265 26.812-27.138 26.812-0.176 0-0.352-0.002-0.528-0.005h0.026z" />
<glyph unicode="&#xe92f;" horiz-adv-x="1590" d="M751.516 473.975c0.005 0.174 0.008 0.378 0.008 0.583 0 11.265-9.132 20.397-20.397 20.397s-20.397-9.132-20.397-20.397c0-11.262 9.127-20.392 20.388-20.397v0c0.1-0.002 0.217-0.003 0.335-0.003 10.994 0 19.923 8.843 20.062 19.804v0.013z" />
<glyph unicode="&#xe930;" horiz-adv-x="1590" d="M659.273 473.975c0.007 0.223 0.011 0.486 0.011 0.749 0 13.518-10.958 24.476-24.476 24.476s-24.476-10.958-24.476-24.476c0-13.518 10.958-24.476 24.476-24.476 0.025 0 0.050 0 0.076 0h-0.004c0.1-0.001 0.217-0.002 0.335-0.002 13.172 0 23.871 10.584 24.057 23.712v0.018z" />
<glyph unicode="&#xe931;" horiz-adv-x="1590" d="M824.861 473.975c0.013 0.249 0.021 0.54 0.021 0.833 0 9.196-7.455 16.65-16.65 16.65s-16.65-7.455-16.65-16.65c0-9.188 7.443-16.639 16.628-16.65h0.001c0.174-0.007 0.379-0.011 0.585-0.011 8.79 0 15.931 7.058 16.066 15.816v0.013z" />
<glyph unicode="&#xe932;" horiz-adv-x="1590" d="M1207.154 461.154c-0.659 2.927-1.722 5.514-3.145 7.858l0.065-0.115c-1.58 2.476-3.396 4.61-5.466 6.468l-0.029 0.025c-2.351 2.019-5.118 3.633-8.147 4.691l-0.179 0.054v1.082c7.552 4.303 12.595 12.245 12.737 21.376v0.020c0.002 0.14 0.004 0.305 0.004 0.471 0 4.456-1.015 8.675-2.826 12.439l0.075-0.172c-1.885 3.355-4.403 6.139-7.415 8.273l-0.078 0.052c-3.205 2.269-6.961 4.020-11.010 5.030l-0.229 0.048c-4.052 0.953-8.704 1.5-13.484 1.5-0.147 0-0.295-0.001-0.442-0.002h-219.762c-0.393 0.052-0.848 0.082-1.31 0.082-2.697 0-5.158-1.010-7.026-2.672l0.011 0.009c-1.491-1.967-2.389-4.455-2.389-7.153 0-0.413 0.021-0.82 0.062-1.222l-0.004 0.050v-97.155c0-1.998 1.082-2.997 3.413-2.997h17.982c1.582 0 2.498 0 2.997 0.666 0.43 0.525 0.69 1.204 0.69 1.943 0 0.137-0.009 0.271-0.026 0.403l0.002-0.016v87.331h44.207v-87.331q0-2.997 3.497-2.997h17.816c1.582 0 2.498 0 2.997 0.666 0.43 0.525 0.69 1.204 0.69 1.943 0 0.137-0.009 0.271-0.026 0.403l0.002-0.016v87.748h29.971v-87.415c-0.010-0.096-0.015-0.208-0.015-0.321 0-0.908 0.354-1.733 0.932-2.344l-0.002 0.002c0.872-0.627 1.961-1.002 3.138-1.002 0.068 0 0.135 0.001 0.202 0.004h17.473c0.209-0.031 0.449-0.049 0.694-0.049 0.944 0 1.825 0.266 2.574 0.727l-0.021-0.012c0.5 0 0.749 1.249 0.749 2.664v87.664h30.637v-81.004c-0.037-0.335-0.059-0.723-0.059-1.116 0-2.367 0.772-4.554 2.077-6.322l-0.021 0.029c1.764-1.45 4.045-2.329 6.532-2.329 0.456 0 0.905 0.030 1.346 0.087l-0.052-0.006h41.626c0.173-0.002 0.377-0.004 0.581-0.004 5.274 0 10.342 0.885 15.062 2.515l-0.324-0.097c4.763 1.654 8.882 4.001 12.472 6.964l-0.068-0.054c3.427 2.918 6.225 6.46 8.238 10.465l0.087 0.192c1.946 3.919 3.084 8.534 3.084 13.416 0 0.171-0.001 0.342-0.004 0.513v-0.026c0 0.041 0 0.089 0 0.137 0 2.908-0.364 5.73-1.050 8.424l0.051-0.236zM1143.050 509.773h22.478c0.203 0.012 0.44 0.019 0.679 0.019 2.904 0 5.572-1.011 7.67-2.701l-0.024 0.018c1.949-1.717 3.172-4.219 3.172-7.007 0-0.142-0.003-0.283-0.009-0.423l0.001 0.020c0.004-0.119 0.007-0.259 0.007-0.4 0-1.854-0.433-3.607-1.203-5.163l0.030 0.068c-0.716-1.346-1.699-2.461-2.885-3.311l-0.029-0.020c-1.169-0.744-2.54-1.296-4.008-1.571l-0.072-0.011c-1.246-0.305-2.68-0.487-4.154-0.499h-22.32zM1181.846 450.165c-0.524-1.811-1.413-3.374-2.59-4.672l0.009 0.010c-1.324-1.477-2.968-2.639-4.825-3.383l-0.087-0.031c-2.097-0.85-4.53-1.343-7.078-1.343-0.234 0-0.467 0.004-0.698 0.012l0.034-0.001h-23.56v28.056h23.56c0.336 0.024 0.728 0.038 1.123 0.038 4.162 0 7.968-1.527 10.887-4.052l-0.021 0.018c2.235-2.458 3.604-5.739 3.604-9.339 0-0.288-0.009-0.573-0.026-0.856l0.002 0.039c-0.021-1.701-0.293-3.33-0.782-4.863l0.032 0.118z" />
<glyph unicode="&#xe933;" d="M921.448 448c0-226.216-183.384-409.6-409.6-409.6s-409.6 183.384-409.6 409.6c0 226.216 183.384 409.6 409.6 409.6v0c226.216 0 409.6-183.384 409.6-409.6v0z" />
<glyph unicode="&#xe934;" d="M512 857.448c226.216 0 409.6-183.384 409.6-409.6s-183.384-409.6-409.6-409.6c-226.216 0-409.6 183.384-409.6 409.6v0c0 226.216 183.384 409.6 409.6 409.6v0zM512 956.056c-280.675 0-508.207-227.532-508.207-508.207s227.532-508.207 508.207-508.207v0c0.040 0 0.087 0 0.134 0 280.675 0 508.207 227.532 508.207 508.207 0 140.428-56.956 267.553-149.028 359.534l-0.004 0.004c-91.769 91.942-218.639 148.822-358.794 148.822-0.182 0-0.363 0-0.545 0h0.028z" />
<glyph unicode="&#xe935;" d="M502.367 284.919h-85.182v261.006h-25.107v-261.006h-85.030v326.163h195.319z" />
<glyph unicode="&#xe936;" d="M733.867 360.77q0-36.485-9.406-52.414c-6.181-10.344-16.435-17.709-28.492-19.91l-0.256-0.039c-15.642-2.643-33.661-4.153-52.034-4.153-3.281 0-6.551 0.048-9.809 0.144l0.478-0.011h-98.152v326.694h166.267v-56.585h-81.237v-55.22h13.122c2.255 0.065 4.909 0.101 7.572 0.101 18.351 0 36.293-1.748 53.669-5.088l-1.773 0.284c12.813-2.431 23.538-9.9 30.232-20.225l0.109-0.179c6.675-10.543 9.937-27.155 9.937-49.683zM648.837 370.631v47.559c0 13.653-1.365 21.997-4.096 24.955s-10.619 4.627-23.514 5.082v-107.255c1.142-0.117 2.468-0.184 3.809-0.184 6.585 0 12.794 1.611 18.255 4.46l-0.218-0.104c3.868 2.731 5.765 11.378 5.765 25.865z" />
<glyph unicode="&#xe937;" glyph-name="phone" d="M759.808-64c-60.963 3.202-117.77 17.712-169.45 41.464l2.879-1.186-22.528 8.875c-48.221 17.375-89.665 37.632-128.474 61.731l2.864-1.657c-134.943 89.397-247.158 201.611-333.855 332.23l-2.699 4.325c-22.656 35.847-42.717 77.107-58.059 120.593l-1.333 4.335-8.192 21.845c-22.773 48.974-37.511 105.983-40.905 166.026l-0.055 1.228c0.564 52.598 14.939 101.72 39.66 144.064l-0.748-1.387c18.589 41.628 49.048 75.166 87.054 97.084l1.010 0.537c31.954 13.515 69.009 22.131 107.854 23.869l0.69 0.025c0.822 0.035 1.787 0.056 2.757 0.056 9.087 0 17.76-1.776 25.689-4.999l-0.457 0.164c21.845-7.509 36.181-34.133 50.517-62.805l15.701-28.672 50.517-90.795c2.645-4.401 5.349-8.191 8.314-11.756l-0.122 0.151c15.962-18.322 26.264-41.948 27.971-67.921l0.018-0.345c0-37.547-37.547-68.267-77.141-99.669-17.806-12.638-33.27-26.802-46.812-42.658l-0.292-0.35c5.367-7.103 10.568-15.138 15.181-23.541l0.521-1.035 6.827-11.605c61.379-113.033 151.842-203.496 261.479-263.183l3.396-1.692 10.24-5.461c9.038-6.537 19.418-12.072 30.519-16.104l0.883-0.28c4.096 0 25.259 30.037 38.229 45.739 32.085 39.595 62.123 77.141 99.669 77.141 26.365-2.088 49.944-12.59 68.4-28.787l-0.133 0.115 10.923-7.509 114.688-64.171c32.768-15.701 59.392-30.72 68.267-54.613 2.209-6.594 3.484-14.186 3.484-22.076 0-1.119-0.026-2.233-0.076-3.34l0.006 0.157c-0.461-39.756-8.698-77.465-23.257-111.848l0.729 1.938c-22.555-38.743-56.074-68.964-96.292-86.853l-1.33-0.528c-41.11-23.202-90.264-36.872-142.611-36.872-0.743 0-1.486 0.003-2.228 0.008l0.114-0.001zM234.155 891.733c-29.307-3.919-55.799-10.853-80.879-20.61l2.373 0.812c-24.822-16.93-44.25-40.086-56.262-67.255l-0.399-1.012c-18.219-30.961-29.467-67.971-30.711-107.504l-0.009-0.357c3.312-53.382 16.557-102.908 37.904-147.84l-1.040 2.432 8.192-22.528c14.859-42.834 32.85-79.817 54.574-114.205l-1.326 2.248c84.206-125.923 189.015-230.95 310.689-312.842l4.021-2.55c32.23-19.96 69.409-37.928 108.472-51.943l4.168-1.305 23.211-8.875c38.171-20.939 83.638-33.256 131.982-33.256 44.121 0 85.847 10.259 122.921 28.522l-1.634-0.727c19.797 10.923 57.344 30.72 68.267 55.296v0c9.869 24.388 16.042 52.631 17.055 82.185l0.011 0.418c0 5.461-21.845 15.019-28.672 17.749l-30.037 16.384-94.208 52.565-15.019 10.24c-7.779 7.168-17.123 12.77-27.45 16.227l-0.539 0.157c-17.048-15.387-32.289-32.145-45.773-50.287l-0.648-0.913c-30.72-38.912-57.344-68.267-91.477-68.267-25.91 2.466-49.244 11.826-68.635 26.202l0.368-0.261-7.509 1.365c-124.166 67.023-223.524 166.162-288.968 286.423l-1.848 3.71-5.461 9.557c-13.506 18.076-22.579 40.201-25.206 64.263l-0.052 0.59c0 34.133 33.451 60.757 68.267 92.16 19.892 14.049 36.985 30.275 51.491 48.638l0.391 0.514c-5.441 9.305-10.628 17.104-16.202 24.598l0.501-0.704c0 5.461-7.509 10.24-10.24 15.701-15.019 31.403-32.085 62.805-45.739 93.525l-20.48 31.403c-5.473 11.186-11.61 20.817-18.678 29.673l0.246-0.319z" />
<glyph unicode="&#xe938;" d="M921.448 448c0-226.216-183.384-409.6-409.6-409.6s-409.6 183.384-409.6 409.6c0 226.216 183.384 409.6 409.6 409.6v0c226.216 0 409.6-183.384 409.6-409.6v0z" />
<glyph unicode="&#xe939;" d="M511.924 857.448c226.216 0 409.6-183.384 409.6-409.6s-183.384-409.6-409.6-409.6c-226.216 0-409.6 183.384-409.6 409.6v0c0 226.216 183.384 409.6 409.6 409.6v0zM511.924 956.056c-279.433-0.424-505.794-227.046-505.794-506.538 0-279.754 226.785-506.539 506.539-506.539s506.539 226.785 506.539 506.539c0 208.525-126.002 387.62-306.023 465.302l-3.287 1.262c-58.216 25.367-126.039 40.126-197.31 40.126-0.233 0-0.467 0-0.7 0h0.037z" />
<glyph unicode="&#xe93a;" d="M598.016 525.293h-75.397v23.211c0.122 1.24 0.192 2.681 0.192 4.139 0 5.939-1.157 11.608-3.257 16.793l0.107-0.3c-1.976 2.496-5.006 4.082-8.406 4.082-0.406 0-0.806-0.023-1.2-0.067l0.048 0.004c-0.176 0.009-0.382 0.014-0.589 0.014-4.468 0-8.379-2.385-10.53-5.951l-0.031-0.055c-2.392-4.597-3.794-10.037-3.794-15.805 0-0.817 0.028-1.628 0.084-2.432l-0.006 0.108c-0.054-0.885-0.084-1.921-0.084-2.963 0-7.456 1.566-14.547 4.387-20.961l-0.131 0.334c5.923-8.047 13.559-14.492 22.397-18.878l0.359-0.161q54.158-32.161 68.267-53.096c9.481-13.729 14.108-35.954 14.108-66.522 0.143-2.163 0.224-4.689 0.224-7.234 0-15.103-2.866-29.536-8.084-42.786l0.275 0.792c-6.912-11.931-17.377-21.147-29.932-26.323l-0.409-0.149c-14.471-6.775-31.423-10.728-49.299-10.728-0.989 0-1.974 0.012-2.957 0.036l0.146-0.003c-0.98-0.029-2.132-0.046-3.289-0.046-19.092 0-37.12 4.557-53.056 12.642l0.669-0.308c-13.694 6.472-24.351 17.498-30.19 31.084l-0.151 0.395c-4.446 14.033-7.008 30.172-7.008 46.909 0 2.683 0.066 5.35 0.196 8.001l-0.015-0.373v20.48h75.852v-37.926c-0.139-1.395-0.218-3.016-0.218-4.654 0-6.513 1.25-12.735 3.522-18.438l-0.118 0.336c2.287-3.131 5.946-5.143 10.075-5.143 0.432 0 0.859 0.022 1.28 0.065l-0.053-0.004c4.863 0.069 9.086 2.743 11.344 6.686l0.034 0.065c2.483 4.861 3.938 10.604 3.938 16.686 0 0.801-0.025 1.596-0.075 2.385l0.005-0.108c0 18.356-2.427 30.341-7.585 36.030-11.206 10.331-23.615 19.699-36.892 27.783l-1.034 0.585c-15.224 9.671-28.315 19.264-40.741 29.626l0.616-0.499c-6.854 6.788-12.273 15.012-15.772 24.183l-0.157 0.469c-4.166 11.161-6.577 24.057-6.577 37.516 0 1.211 0.020 2.417 0.058 3.619l-0.004-0.175c0 23.893 3.11 41.415 9.178 52.489 6.869 11.566 17.061 20.536 29.252 25.712l0.406 0.153c13.698 6.109 29.682 9.667 46.498 9.667 0.987 0 1.97-0.012 2.951-0.037l-0.145 0.003c1.2 0.040 2.61 0.063 4.026 0.063 18.052 0 35.233-3.734 50.811-10.471l-0.83 0.32c12.767-4.921 23.027-13.978 29.36-25.499l0.147-0.291c4.93-10.316 7.585-27.913 7.585-52.641z" />
<glyph unicode="&#xe93b;" d="M512-64c-46.957 0.063-92.408 6.391-135.599 18.194l3.617-0.842c-110.634 28.774-203.732 91.581-269.962 176.39l-0.829 1.103c-68.175 86.167-109.362 196.409-109.362 316.27 0 282.77 229.23 512 512 512s512-229.23 512-512c0-221.543-140.709-410.221-337.633-481.542l-3.565-1.128c-49.982-18.029-107.66-28.453-167.773-28.453-1.017 0-2.034 0.003-3.050 0.009l0.157-0.001z" />
<glyph unicode="&#xe93c;" d="M455.111 376.604c-70.85 0-128.284 57.435-128.284 128.284s57.435 128.284 128.284 128.284c70.85 0 128.284-57.435 128.284-128.284v0c0-70.85-57.435-128.284-128.284-128.284v0zM625.778 376.604h-22.756l-7.68 7.964c27.778 32.273 44.694 74.588 44.694 120.853 0 102.583-83.16 185.742-185.742 185.742s-185.742-83.16-185.742-185.742c0-102.583 83.16-185.742 185.742-185.742 46.265 0 88.58 16.915 121.097 44.899l-0.244-0.205 7.964-7.68v-22.471l142.222-142.222 42.667 42.382z" />
<glyph unicode="&#xe93d;" d="M1024 448c0-282.77-229.23-512-512-512s-512 229.23-512 512c0 282.77 229.23 512 512 512s512-229.23 512-512z" />
<glyph unicode="&#xe93e;" d="M844.645 353.978c7.793 7.662 12.621 18.317 12.621 30.099s-4.829 22.438-12.615 30.094l-0.006 0.006-302.545 302.235c-7.612 7.775-18.215 12.596-29.944 12.596s-22.333-4.821-29.937-12.589l-0.007-0.007-302.545-302.235c-7.793-7.662-12.621-18.317-12.621-30.099s4.829-22.438 12.615-30.094l0.006-0.006 68.577-67.956c7.662-7.793 18.317-12.621 30.099-12.621s22.438 4.829 30.094 12.615l204.496 204.496 204.8-204.49c7.612-7.775 18.215-12.596 29.944-12.596s22.333 4.821 29.937 12.589l0.007 0.007z" />
<glyph unicode="&#xe93f;" d="M921.448 448c0-226.216-183.384-409.6-409.6-409.6s-409.6 183.384-409.6 409.6c0 226.216 183.384 409.6 409.6 409.6v0c226.216 0 409.6-183.384 409.6-409.6v0z" />
<glyph unicode="&#xe940;" d="M512 857.448c226.216 0 409.6-183.384 409.6-409.6s-183.384-409.6-409.6-409.6c-226.216 0-409.6 183.384-409.6 409.6v0c0 226.216 183.384 409.6 409.6 409.6v0zM512 956.056c-280.57-0.139-507.963-227.618-507.963-508.207 0-140.239 56.803-267.211 148.657-359.163l-0.005 0.005c91.972-91.995 219.043-148.897 359.404-148.897 280.675 0 508.207 227.532 508.207 508.207s-227.532 508.207-508.207 508.207c-0.033 0-0.066 0-0.099 0h0.006z" />
<glyph unicode="&#xe941;" d="M573.364 622.232l-36.030-311.827h-101.338q-13.729 71.908-24.5 163.537-4.779-39.367-22.756-163.537h-100.504l-36.257 311.827h78.734l8.571-108.772 8.268-105.207q4.551 81.617 22.756 213.978h84.196c1.138-9.178 4.020-43.387 8.799-102.855l8.951-118.632q6.903 113.247 22.756 221.487z" />
<glyph unicode="&#xe942;" d="M725.675 622.232l46.345-311.827h-82.83l-4.324 56.055h-29.051l-4.855-56.055h-83.437l41.339 311.827zM682.667 421.452q-6.144 53.096-12.288 130.996-12.364-89.505-15.17-130.996z" />
<glyph unicode="&#xe943;" d="M1024 448c0-282.77-229.23-512-512-512s-512 229.23-512 512c0 282.77 229.23 512 512 512s512-229.23 512-512z" />
<glyph unicode="&#xe944;" d="M279.272 285.764l43.883-43.883 394.951 394.951-43.883 43.883z" />
<glyph unicode="&#xe945;" d="M323.171 680.728l-43.883-43.883 394.951-394.951 43.883 43.883z" />
</font>
</defs>
</svg>
